inDegrees=no
num_controls=7
num_derivatives=13
num_iterations=114
num_multipliers=7
num_parameters=0
num_slacks=7
num_states=26
objective=0.443538
objective_accelerations=0.060139
objective_balance=0.003830
objective_effort=0.024462
objective_height=0.349764
objective_ligament=0.005343
solver_duration=1727.413509
status=Solve_Succeeded
success=true
DataType=double
version=3
OpenSimVersion=4.5
endheader
time	/jointset/ground_pelvis/pelvis_tilt/value	/jointset/ground_pelvis/pelvis_tx/value	/jointset/ground_pelvis/pelvis_ty/value	/jointset/hip_l/hip_flexion_l/value	/jointset/hip_l/hip_adduction_l/value	/jointset/hip_l/hip_rotation_l/value	/jointset/back/lumbar_extension/value	/jointset/patellofemoral_l/patellar_flexion_l/value	/jointset/knee_l/knee_flexion_l/value	/jointset/knee_l/knee_adduction_l/value	/jointset/knee_l/knee_rotation_l/value	/jointset/ankle_l/ankle_angle_l/value	/jointset/subtalar_l/subtalar_angle_l/value	/jointset/ground_pelvis/pelvis_tilt/speed	/jointset/ground_pelvis/pelvis_tx/speed	/jointset/ground_pelvis/pelvis_ty/speed	/jointset/hip_l/hip_flexion_l/speed	/jointset/hip_l/hip_adduction_l/speed	/jointset/hip_l/hip_rotation_l/speed	/jointset/back/lumbar_extension/speed	/jointset/patellofemoral_l/patellar_flexion_l/speed	/jointset/knee_l/knee_flexion_l/speed	/jointset/knee_l/knee_adduction_l/speed	/jointset/knee_l/knee_rotation_l/speed	/jointset/ankle_l/ankle_angle_l/speed	/jointset/subtalar_l/subtalar_angle_l/speed	/forceset/tau_hip_flexion_l	/forceset/tau_hip_adduction_l	/forceset/tau_hip_rotation_l	/forceset/tau_knee_flexion_l	/forceset/tau_ankle_angle_l	/forceset/tau_subtalar_angle_l	/forceset/tau_lumbar_extension	lambda_cid13_p0	lambda_cid13_p1	lambda_cid13_p2	lambda_cid13_p3	lambda_cid13_p4	lambda_cid13_p5	lambda_cid14_p0	/jointset/ground_pelvis/pelvis_tilt/accel	/jointset/ground_pelvis/pelvis_tx/accel	/jointset/ground_pelvis/pelvis_ty/accel	/jointset/hip_l/hip_flexion_l/accel	/jointset/hip_l/hip_adduction_l/accel	/jointset/hip_l/hip_rotation_l/accel	/jointset/back/lumbar_extension/accel	/jointset/patellofemoral_l/patellar_flexion_l/accel	/jointset/knee_l/knee_flexion_l/accel	/jointset/knee_l/knee_adduction_l/accel	/jointset/knee_l/knee_rotation_l/accel	/jointset/ankle_l/ankle_angle_l/accel	/jointset/subtalar_l/subtalar_angle_l/accel	gamma_cid13_p0	gamma_cid13_p1	gamma_cid13_p2	gamma_cid13_p3	gamma_cid13_p4	gamma_cid13_p5	gamma_cid14_p0
0	-0.03955025634311107	0.06892477671669341	0.8959518350857351	0.1955287580552426	-0.3219965786260078	-0.4836009151873742	-0.1379045077516729	0.07015288079084836	0.07015288079084844	-0.1745328716359476	-0.118056695240687	-0.06701059314715049	0.003832853931732779	0	0	0	0	0	0	0	0	0	0	0	0	0	0.107806377673924	-0.09983409627004688	-0.02972706583339409	-0.2305613636151029	0.182987315096495	-0.01378779401952947	-0.05353695511945335	23.12181073623978	-1.230957194223	3.481844041828399	3.491778307525464	-514.0295261709326	-82.18870837813627	-39.92063573300516	-4.807303407214107	-2.028434347558918	-1.028753311260303	13.34849267481041	-2.161341639523644	3.479602865110185	-2.901521527198326	10.54645452010461	10.54645452010454	0.7487838952775805	-0.8606568854563575	2.227520321351566	-1.16075393682355	-2.515343218201632e-08	1.449495396998433e-07	1.283682008144707e-07	1.103247375247965e-08	-1.663758883835939e-09	-3.319141867404177e-08	-4.470211926850866e-09
0.01	-0.03978004478349488	0.0688250135643198	0.8959018849804391	0.1961745353946083	-0.3221029592842897	-0.4834263856044663	-0.1380559495534665	0.070665258077316	0.07066525807731745	-0.1744990048872265	-0.1180934946838062	-0.06690362713935606	0.003774225103225103	-0.04576254527090882	-0.01983056168172432	-0.009957280574264475	0.1285590785712749	-0.02116664136189077	0.03473957238203432	-0.03003605944561296	0.1020194494040636	0.102019449404073	0.006758572646207795	-0.007330276489375445	0.02133878191842782	-0.0116360855944232	0.104653424447144	-0.1001149710690384	-0.02930452470990672	-0.2280891783710671	0.1799580530516802	-0.01125194693153293	-0.05063401317992801	22.22164028690005	-2.13959071225627	3.586644405921972	3.112045576400237	-514.9465285501225	-83.8427652475569	-39.93102826296771	-4.431471754838737	-1.942054553039765	-0.9743046905198758	12.52014379343195	-2.077937374472647	3.446169388751914	-3.016803016265102	9.961289861152567	9.961289861153748	0.6372163821661356	-0.6647597853698171	2.078896913342475	-1.151621592576211	-6.726220584470386e-08	1.672465633239824e-07	2.09800065898701e-07	4.892400152589598e-08	-2.457231314062751e-07	-8.692734833532692e-08	-1.134622896274623e-08
0.02	-0.04046160701014996	0.06853060730021686	0.8957533442173983	0.1980880091887157	-0.3224177287541805	-0.4829094533049373	-0.1385001829223209	0.0721841497999451	0.07218414979994535	-0.1743979879254658	-0.1182027062427543	-0.06658490535512654	0.003601918274408289	-0.09035475725419541	-0.03892862234587127	-0.01971813154894228	0.2535392909483871	-0.0416777623218155	0.06848054332414309	-0.0585583134121183	0.2013028872319406	0.2013028872319485	0.01343004260736552	-0.01448242316641823	0.04235115528701888	-0.02273560006182678	0.1015004712203633	-0.1003958458680309	-0.02888198358643679	-0.2256169931270297	0.1769287910068647	-0.008716099843537679	-0.04773107124040248	21.38725243817087	-3.060831020305241	3.694699289717336	2.578470983255499	-514.8961914542734	-85.32797049779019	-39.96160626859555	-4.573236749689656	-1.881934144043443	-0.9894673913429677	12.63271943597786	-2.030237559130437	3.279882577125074	-2.598760431376798	9.9992522048673	9.999252204865043	0.7313633582675635	-0.8250309229898268	2.162238611384211	-1.053439711419628	-1.093709795073914e-07	1.895435869481215e-07	2.912319309829314e-07	8.68155292993123e-08	-4.897825039287142e-07	-1.406632779966121e-07	-1.82222459986416e-08
0.03	-0.04158366906155511	0.06804866405943513	0.8955078427763188	0.2012346271534717	-0.3229341939482284	-0.4820600995670881	-0.139221250157414	0.07468276631744881	0.07468276631744909	-0.1742304516965659	-0.1183827625706798	-0.06605776316878632	0.003321391133952741	-0.1338371295876617	-0.05735686199212384	-0.02937319865861984	0.3751942754926715	-0.06149379345342516	0.1012557639813682	-0.08539155569324419	0.2979536653141918	0.2979536653141914	0.02005538155973223	-0.02146580121913956	0.0629917337895971	-0.03328620556900519	0.09664586827455722	-0.09691568073399942	-0.02807198552949053	-0.2209110315158308	0.1716559363553189	-0.00805063709348385	-0.04368118236411377	19.76184754114526	-3.14069934006001	3.79361923508802	2.980629671381354	-514.740595614279	-84.85070206651469	-40.01111710084214	-4.20267128242261	-1.807776785964096	-0.9522816121277292	11.84336369838514	-1.93911469072304	3.256137673540655	-2.686069439481279	9.427981638959045	9.427981638959322	0.6249109821977976	-0.6254996730630509	2.002134406816296	-1.043390270317249	-1.396605775830996e-07	2.087786517259707e-07	3.509505607764077e-07	1.157280444621073e-07	-6.684197136399638e-07	-1.785497062370642e-07	-2.24510465584537e-08
0.04	-0.04313394159774476	0.06738553683998133	0.8951660396158729	0.2055800901106164	-0.3236451852137016	-0.4808870344499623	-0.1402027424779187	0.07813388882158491	0.07813388882158548	-0.1739973037144466	-0.1186307543644643	-0.06532678180999597	0.002937854078435343	-0.1759968542110257	-0.07516541808029203	-0.03897847542220322	0.4933082894262133	-0.08058297660690704	0.1332228191793702	-0.1106433304944014	0.3918040845586433	0.3918040845586503	0.02655239325116151	-0.02806951633785137	0.08311898977704182	-0.04333758307419584	0.09179126532874693	-0.09343551559996868	-0.02726198747253638	-0.2162050699046382	0.1663830817037705	-0.007385174343432375	-0.03963129348782553	18.19626442975334	-3.230752907837463	3.893833549867824	3.239107359716262	-513.7084905466313	-84.21428904522517	-40.07796081657059	-4.308707207669199	-1.757997432426569	-0.9795093221241322	11.92452531382932	-1.884867963504882	3.118249485280474	-2.282466935383066	9.439180437307357	9.43918043730827	0.7056979060800758	-0.7490983361879242	2.059574108357506	-0.953594111022081	-1.697064813168082e-07	2.279505833317315e-07	4.102214949968789e-07	1.444554253442709e-07	-8.45708012777787e-07	-2.161093406337878e-07	-2.662526533525379e-08
0.05	-0.04509998423713397	0.06654734193191249	0.8947281244056868	0.2110906155295834	-0.3245433884808792	-0.4793987076679277	-0.1414282573368368	0.08251053877723986	0.08251053877724016	-0.1736995465220763	-0.1189436074915848	-0.06439681264018705	0.002456492350778635	-0.2169869136616188	-0.09237431450479566	-0.04861529989716568	0.6082196137239163	-0.09892747584736761	0.1643015946916273	-0.1342219173901416	0.483062825800441	0.4830628258004001	0.03297251364416039	-0.03444473687618241	0.1027808793741573	-0.05284758858402581	0.08657711009197443	-0.0893709094543063	-0.02641365660402057	-0.2118045823616322	0.1613947759147548	-0.007099267630762653	-0.03541266989858843	16.70138276965574	-3.177915170722347	3.982198299006914	3.611444455453388	-512.7052043436269	-83.2063864704978	-40.16012115489519	-3.960453128323114	-1.687419269936275	-0.9575495767403995	11.18783338228886	-1.789774497183769	3.081494675959858	-2.359895981802032	8.8997642106208	8.899764210613016	0.6062741000364593	-0.5732253822939319	1.905398634294322	-0.9367094707816593	-1.864745287791456e-07	2.276108226914387e-07	4.440849160493899e-07	1.610632525042577e-07	-9.515286644336054e-07	-2.388577475253482e-07	-2.939787526421808e-08
